# xmcd
#
# Track frame offsets: 
#        150
#        30874
#        51695
#        72015
#        93151
#        116633
#        131544
#        149664
#        167515
#        185533
#        214618
#        227106
#
# Disc length: 3266 seconds
#
# Revision: 0
# Processed by: cddbd v1.5.1PL0 Copyright (c) Steve Scherf et al.
# Submitted via: ExactAudioCopy v0.95a4
#
DISCID=a70cc00c
DTITLE=Van Morrison - Summertime In The Italian Spring
DYEAR=2004
DGENRE=Celtic
TTITLE0=I Like It Like That > Kansas City
TTITLE1=The Healing Game
TTITLE2=Get On With The Show
TTITLE3=Hoochie Coochie Man
TTITLE4=Caravan
TTITLE5=Once In A Blue Moon
TTITLE6=Give Me A Kiss
TTITLE7=Into The Mystic
TTITLE8=Whining Boy Moan
TTITLE9=Summertime In England
TTITLE10=Sack O'Woe
TTITLE11=Wonderful Remark
EXTD=
EXTT0=
EXTT1=
EXTT2=
EXTT3=
EXTT4=
EXTT5=
EXTT6=
EXTT7=
EXTT8=
EXTT9=
EXTT10=
EXTT11=
PLAYORDER=
